<mxfile host="app.diagrams.net" agent="Mozilla/5.0 (Windows NT 10.0; Win64; x64; rv:143.0) Gecko/20100101 Firefox/143.0" version="28.2.5">
  <diagram name="Page-1" id="FN3IKl5w4eRPx6lZdEGJ">
    <mxGraphModel dx="2373" dy="1312" grid="1" gridSize="10" guides="1" tooltips="1" connect="1" arrows="1" fold="1" page="1" pageScale="1" pageWidth="827" pageHeight="1169" math="0" shadow="0">
      <root>
        <mxCell id="0" />
        <mxCell id="1" parent="0" />
        <mxCell id="Edx4fiYNY0nwNvGsdz91-1" value="Heroes" style="swimlane;fontStyle=0;childLayout=stackLayout;horizontal=1;startSize=26;fillColor=none;horizontalStack=0;resizeParent=1;resizeParentMax=0;resizeLast=0;collapsible=1;marginBottom=0;whiteSpace=wrap;html=1;" vertex="1" parent="1">
          <mxGeometry x="990" y="521" width="190" height="260" as="geometry" />
        </mxCell>
        <mxCell id="Edx4fiYNY0nwNvGsdz91-2" value="- name: String" style="text;strokeColor=none;fillColor=none;align=left;verticalAlign=top;spacingLeft=4;spacingRight=4;overflow=hidden;rotatable=0;points=[[0,0.5],[1,0.5]];portConstraint=eastwest;whiteSpace=wrap;html=1;" vertex="1" parent="Edx4fiYNY0nwNvGsdz91-1">
          <mxGeometry y="26" width="190" height="26" as="geometry" />
        </mxCell>
        <mxCell id="Edx4fiYNY0nwNvGsdz91-3" value="&lt;div&gt;- level: int&lt;/div&gt;" style="text;strokeColor=none;fillColor=none;align=left;verticalAlign=top;spacingLeft=4;spacingRight=4;overflow=hidden;rotatable=0;points=[[0,0.5],[1,0.5]];portConstraint=eastwest;whiteSpace=wrap;html=1;" vertex="1" parent="Edx4fiYNY0nwNvGsdz91-1">
          <mxGeometry y="52" width="190" height="26" as="geometry" />
        </mxCell>
        <mxCell id="Edx4fiYNY0nwNvGsdz91-4" value="- experience: int" style="text;strokeColor=none;fillColor=none;align=left;verticalAlign=top;spacingLeft=4;spacingRight=4;overflow=hidden;rotatable=0;points=[[0,0.5],[1,0.5]];portConstraint=eastwest;whiteSpace=wrap;html=1;" vertex="1" parent="Edx4fiYNY0nwNvGsdz91-1">
          <mxGeometry y="78" width="190" height="26" as="geometry" />
        </mxCell>
        <mxCell id="Edx4fiYNY0nwNvGsdz91-36" value="- experienceToNextLevel: int" style="text;strokeColor=none;fillColor=none;align=left;verticalAlign=top;spacingLeft=4;spacingRight=4;overflow=hidden;rotatable=0;points=[[0,0.5],[1,0.5]];portConstraint=eastwest;whiteSpace=wrap;html=1;" vertex="1" parent="Edx4fiYNY0nwNvGsdz91-1">
          <mxGeometry y="104" width="190" height="26" as="geometry" />
        </mxCell>
        <mxCell id="Edx4fiYNY0nwNvGsdz91-9" value="&lt;div&gt;- attack: int&lt;/div&gt;" style="text;strokeColor=none;fillColor=none;align=left;verticalAlign=top;spacingLeft=4;spacingRight=4;overflow=hidden;rotatable=0;points=[[0,0.5],[1,0.5]];portConstraint=eastwest;whiteSpace=wrap;html=1;" vertex="1" parent="Edx4fiYNY0nwNvGsdz91-1">
          <mxGeometry y="130" width="190" height="26" as="geometry" />
        </mxCell>
        <mxCell id="Edx4fiYNY0nwNvGsdz91-11" value="&lt;div&gt;- defense: int&lt;/div&gt;" style="text;strokeColor=none;fillColor=none;align=left;verticalAlign=top;spacingLeft=4;spacingRight=4;overflow=hidden;rotatable=0;points=[[0,0.5],[1,0.5]];portConstraint=eastwest;whiteSpace=wrap;html=1;" vertex="1" parent="Edx4fiYNY0nwNvGsdz91-1">
          <mxGeometry y="156" width="190" height="26" as="geometry" />
        </mxCell>
        <mxCell id="Edx4fiYNY0nwNvGsdz91-12" value="&lt;div&gt;- hitPoints: int&lt;/div&gt;" style="text;strokeColor=none;fillColor=none;align=left;verticalAlign=top;spacingLeft=4;spacingRight=4;overflow=hidden;rotatable=0;points=[[0,0.5],[1,0.5]];portConstraint=eastwest;whiteSpace=wrap;html=1;" vertex="1" parent="Edx4fiYNY0nwNvGsdz91-1">
          <mxGeometry y="182" width="190" height="26" as="geometry" />
        </mxCell>
        <mxCell id="Xcn8wanABZDGnD14Wmt7-25" value="&lt;div&gt;- maxHitPoints: int&lt;/div&gt;" style="text;strokeColor=none;fillColor=none;align=left;verticalAlign=top;spacingLeft=4;spacingRight=4;overflow=hidden;rotatable=0;points=[[0,0.5],[1,0.5]];portConstraint=eastwest;whiteSpace=wrap;html=1;" vertex="1" parent="Edx4fiYNY0nwNvGsdz91-1">
          <mxGeometry y="208" width="190" height="26" as="geometry" />
        </mxCell>
        <mxCell id="Edx4fiYNY0nwNvGsdz91-35" value="&lt;div&gt;- coordinate: Coordinates&lt;/div&gt;" style="text;strokeColor=none;fillColor=none;align=left;verticalAlign=top;spacingLeft=4;spacingRight=4;overflow=hidden;rotatable=0;points=[[0,0.5],[1,0.5]];portConstraint=eastwest;whiteSpace=wrap;html=1;" vertex="1" parent="Edx4fiYNY0nwNvGsdz91-1">
          <mxGeometry y="234" width="190" height="26" as="geometry" />
        </mxCell>
        <mxCell id="Edx4fiYNY0nwNvGsdz91-13" value="Knight" style="swimlane;fontStyle=0;childLayout=stackLayout;horizontal=1;startSize=26;fillColor=none;horizontalStack=0;resizeParent=1;resizeParentMax=0;resizeLast=0;collapsible=1;marginBottom=0;whiteSpace=wrap;html=1;" vertex="1" parent="1">
          <mxGeometry x="850" y="830" width="140" height="52" as="geometry" />
        </mxCell>
        <mxCell id="Edx4fiYNY0nwNvGsdz91-27" value="Ranger" style="swimlane;fontStyle=0;childLayout=stackLayout;horizontal=1;startSize=26;fillColor=none;horizontalStack=0;resizeParent=1;resizeParentMax=0;resizeLast=0;collapsible=1;marginBottom=0;whiteSpace=wrap;html=1;" vertex="1" parent="1">
          <mxGeometry x="1010" y="830" width="140" height="52" as="geometry">
            <mxRectangle x="330" y="270" width="80" height="30" as="alternateBounds" />
          </mxGeometry>
        </mxCell>
        <mxCell id="Edx4fiYNY0nwNvGsdz91-28" value="Barbarian" style="swimlane;fontStyle=0;childLayout=stackLayout;horizontal=1;startSize=26;fillColor=none;horizontalStack=0;resizeParent=1;resizeParentMax=0;resizeLast=0;collapsible=1;marginBottom=0;whiteSpace=wrap;html=1;" vertex="1" parent="1">
          <mxGeometry x="1170" y="830" width="140" height="52" as="geometry" />
        </mxCell>
        <mxCell id="Xcn8wanABZDGnD14Wmt7-1" value="Ennemies" style="swimlane;fontStyle=0;childLayout=stackLayout;horizontal=1;startSize=26;fillColor=none;horizontalStack=0;resizeParent=1;resizeParentMax=0;resizeLast=0;collapsible=1;marginBottom=0;whiteSpace=wrap;html=1;" vertex="1" parent="1">
          <mxGeometry x="460" y="552" width="190" height="208" as="geometry">
            <mxRectangle x="210" y="440" width="90" height="30" as="alternateBounds" />
          </mxGeometry>
        </mxCell>
        <mxCell id="Xcn8wanABZDGnD14Wmt7-5" value="- name: String" style="text;strokeColor=none;fillColor=none;align=left;verticalAlign=top;spacingLeft=4;spacingRight=4;overflow=hidden;rotatable=0;points=[[0,0.5],[1,0.5]];portConstraint=eastwest;whiteSpace=wrap;html=1;" vertex="1" parent="Xcn8wanABZDGnD14Wmt7-1">
          <mxGeometry y="26" width="190" height="26" as="geometry" />
        </mxCell>
        <mxCell id="Xcn8wanABZDGnD14Wmt7-6" value="&lt;div&gt;- level: int&lt;/div&gt;" style="text;strokeColor=none;fillColor=none;align=left;verticalAlign=top;spacingLeft=4;spacingRight=4;overflow=hidden;rotatable=0;points=[[0,0.5],[1,0.5]];portConstraint=eastwest;whiteSpace=wrap;html=1;" vertex="1" parent="Xcn8wanABZDGnD14Wmt7-1">
          <mxGeometry y="52" width="190" height="26" as="geometry" />
        </mxCell>
        <mxCell id="Xcn8wanABZDGnD14Wmt7-7" value="&lt;div&gt;- attack: int&lt;/div&gt;" style="text;strokeColor=none;fillColor=none;align=left;verticalAlign=top;spacingLeft=4;spacingRight=4;overflow=hidden;rotatable=0;points=[[0,0.5],[1,0.5]];portConstraint=eastwest;whiteSpace=wrap;html=1;" vertex="1" parent="Xcn8wanABZDGnD14Wmt7-1">
          <mxGeometry y="78" width="190" height="26" as="geometry" />
        </mxCell>
        <mxCell id="Xcn8wanABZDGnD14Wmt7-8" value="&lt;div&gt;- defense: int&lt;/div&gt;" style="text;strokeColor=none;fillColor=none;align=left;verticalAlign=top;spacingLeft=4;spacingRight=4;overflow=hidden;rotatable=0;points=[[0,0.5],[1,0.5]];portConstraint=eastwest;whiteSpace=wrap;html=1;" vertex="1" parent="Xcn8wanABZDGnD14Wmt7-1">
          <mxGeometry y="104" width="190" height="26" as="geometry" />
        </mxCell>
        <mxCell id="Xcn8wanABZDGnD14Wmt7-9" value="&lt;div&gt;- hitPoints: int&lt;/div&gt;" style="text;strokeColor=none;fillColor=none;align=left;verticalAlign=top;spacingLeft=4;spacingRight=4;overflow=hidden;rotatable=0;points=[[0,0.5],[1,0.5]];portConstraint=eastwest;whiteSpace=wrap;html=1;" vertex="1" parent="Xcn8wanABZDGnD14Wmt7-1">
          <mxGeometry y="130" width="190" height="26" as="geometry" />
        </mxCell>
        <mxCell id="Xcn8wanABZDGnD14Wmt7-10" value="&lt;div&gt;- maxHitPoints: int&lt;/div&gt;" style="text;strokeColor=none;fillColor=none;align=left;verticalAlign=top;spacingLeft=4;spacingRight=4;overflow=hidden;rotatable=0;points=[[0,0.5],[1,0.5]];portConstraint=eastwest;whiteSpace=wrap;html=1;" vertex="1" parent="Xcn8wanABZDGnD14Wmt7-1">
          <mxGeometry y="156" width="190" height="26" as="geometry" />
        </mxCell>
        <mxCell id="Xcn8wanABZDGnD14Wmt7-26" value="&lt;div&gt;- coordinate: Coordinates&lt;/div&gt;" style="text;strokeColor=none;fillColor=none;align=left;verticalAlign=top;spacingLeft=4;spacingRight=4;overflow=hidden;rotatable=0;points=[[0,0.5],[1,0.5]];portConstraint=eastwest;whiteSpace=wrap;html=1;" vertex="1" parent="Xcn8wanABZDGnD14Wmt7-1">
          <mxGeometry y="182" width="190" height="26" as="geometry" />
        </mxCell>
        <mxCell id="Xcn8wanABZDGnD14Wmt7-11" value="Wolf" style="swimlane;fontStyle=0;childLayout=stackLayout;horizontal=1;startSize=26;fillColor=none;horizontalStack=0;resizeParent=1;resizeParentMax=0;resizeLast=0;collapsible=1;marginBottom=0;whiteSpace=wrap;html=1;" vertex="1" parent="1">
          <mxGeometry x="300" y="826" width="140" height="52" as="geometry" />
        </mxCell>
        <mxCell id="Xcn8wanABZDGnD14Wmt7-13" value="&lt;div&gt;Goblin&lt;/div&gt;" style="swimlane;fontStyle=0;childLayout=stackLayout;horizontal=1;startSize=26;fillColor=none;horizontalStack=0;resizeParent=1;resizeParentMax=0;resizeLast=0;collapsible=1;marginBottom=0;whiteSpace=wrap;html=1;" vertex="1" parent="1">
          <mxGeometry x="470" y="826" width="140" height="52" as="geometry" />
        </mxCell>
        <mxCell id="Xcn8wanABZDGnD14Wmt7-14" value="Orc" style="swimlane;fontStyle=0;childLayout=stackLayout;horizontal=1;startSize=26;fillColor=none;horizontalStack=0;resizeParent=1;resizeParentMax=0;resizeLast=0;collapsible=1;marginBottom=0;whiteSpace=wrap;html=1;" vertex="1" parent="1">
          <mxGeometry x="640" y="826" width="140" height="52" as="geometry" />
        </mxCell>
        <mxCell id="Xcn8wanABZDGnD14Wmt7-18" value="Map" style="swimlane;fontStyle=0;childLayout=stackLayout;horizontal=1;startSize=26;fillColor=none;horizontalStack=0;resizeParent=1;resizeParentMax=0;resizeLast=0;collapsible=1;marginBottom=0;whiteSpace=wrap;html=1;" vertex="1" parent="1">
          <mxGeometry x="770" y="190" width="210" height="78" as="geometry" />
        </mxCell>
        <mxCell id="Xcn8wanABZDGnD14Wmt7-19" value="- size: int" style="text;strokeColor=none;fillColor=none;align=left;verticalAlign=top;spacingLeft=4;spacingRight=4;overflow=hidden;rotatable=0;points=[[0,0.5],[1,0.5]];portConstraint=eastwest;whiteSpace=wrap;html=1;" vertex="1" parent="Xcn8wanABZDGnD14Wmt7-18">
          <mxGeometry y="26" width="210" height="26" as="geometry" />
        </mxCell>
        <mxCell id="Xcn8wanABZDGnD14Wmt7-20" value="- map: HashMap&amp;lt;Coordinate, Char&amp;gt;" style="text;strokeColor=none;fillColor=none;align=left;verticalAlign=top;spacingLeft=4;spacingRight=4;overflow=hidden;rotatable=0;points=[[0,0.5],[1,0.5]];portConstraint=eastwest;whiteSpace=wrap;html=1;" vertex="1" parent="Xcn8wanABZDGnD14Wmt7-18">
          <mxGeometry y="52" width="210" height="26" as="geometry" />
        </mxCell>
        <mxCell id="Xcn8wanABZDGnD14Wmt7-22" value="Coordinates" style="swimlane;fontStyle=0;childLayout=stackLayout;horizontal=1;startSize=26;fillColor=none;horizontalStack=0;resizeParent=1;resizeParentMax=0;resizeLast=0;collapsible=1;marginBottom=0;whiteSpace=wrap;html=1;" vertex="1" parent="1">
          <mxGeometry x="726" y="630" width="100" height="78" as="geometry" />
        </mxCell>
        <mxCell id="Xcn8wanABZDGnD14Wmt7-23" value="- x: int" style="text;strokeColor=none;fillColor=none;align=left;verticalAlign=top;spacingLeft=4;spacingRight=4;overflow=hidden;rotatable=0;points=[[0,0.5],[1,0.5]];portConstraint=eastwest;whiteSpace=wrap;html=1;" vertex="1" parent="Xcn8wanABZDGnD14Wmt7-22">
          <mxGeometry y="26" width="100" height="26" as="geometry" />
        </mxCell>
        <mxCell id="Xcn8wanABZDGnD14Wmt7-24" value="- y: int" style="text;strokeColor=none;fillColor=none;align=left;verticalAlign=top;spacingLeft=4;spacingRight=4;overflow=hidden;rotatable=0;points=[[0,0.5],[1,0.5]];portConstraint=eastwest;whiteSpace=wrap;html=1;" vertex="1" parent="Xcn8wanABZDGnD14Wmt7-22">
          <mxGeometry y="52" width="100" height="26" as="geometry" />
        </mxCell>
        <mxCell id="Xcn8wanABZDGnD14Wmt7-28" value="" style="endArrow=diamondThin;endFill=0;endSize=24;html=1;rounded=0;entryX=-0.01;entryY=0.981;entryDx=0;entryDy=0;entryPerimeter=0;" edge="1" parent="1" target="Xcn8wanABZDGnD14Wmt7-19">
          <mxGeometry width="160" relative="1" as="geometry">
            <mxPoint x="560" y="550" as="sourcePoint" />
            <mxPoint x="690" y="220" as="targetPoint" />
            <Array as="points">
              <mxPoint x="560" y="240" />
            </Array>
          </mxGeometry>
        </mxCell>
        <mxCell id="Xcn8wanABZDGnD14Wmt7-29" value="" style="endArrow=diamondThin;endFill=0;endSize=24;html=1;rounded=0;entryX=1.006;entryY=-0.115;entryDx=0;entryDy=0;entryPerimeter=0;" edge="1" parent="1" target="Xcn8wanABZDGnD14Wmt7-20">
          <mxGeometry width="160" relative="1" as="geometry">
            <mxPoint x="1080" y="521" as="sourcePoint" />
            <mxPoint x="1288" y="213" as="targetPoint" />
            <Array as="points">
              <mxPoint x="1080" y="240" />
            </Array>
          </mxGeometry>
        </mxCell>
        <mxCell id="Xcn8wanABZDGnD14Wmt7-30" value="" style="endArrow=diamondThin;endFill=0;endSize=24;html=1;rounded=0;entryX=0;entryY=0.5;entryDx=0;entryDy=0;exitX=0.937;exitY=-0.013;exitDx=0;exitDy=0;exitPerimeter=0;" edge="1" parent="1" source="Xcn8wanABZDGnD14Wmt7-22" target="Edx4fiYNY0nwNvGsdz91-2">
          <mxGeometry width="160" relative="1" as="geometry">
            <mxPoint x="772" y="630" as="sourcePoint" />
            <mxPoint x="980" y="562" as="targetPoint" />
            <Array as="points">
              <mxPoint x="820" y="600" />
              <mxPoint x="820" y="560" />
            </Array>
          </mxGeometry>
        </mxCell>
        <mxCell id="Xcn8wanABZDGnD14Wmt7-31" value="" style="endArrow=diamondThin;endFill=0;endSize=24;html=1;rounded=0;exitX=0.13;exitY=-0.026;exitDx=0;exitDy=0;exitPerimeter=0;entryX=1.011;entryY=0.082;entryDx=0;entryDy=0;entryPerimeter=0;" edge="1" parent="1" source="Xcn8wanABZDGnD14Wmt7-22" target="Xcn8wanABZDGnD14Wmt7-1">
          <mxGeometry width="160" relative="1" as="geometry">
            <mxPoint x="670" y="540" as="sourcePoint" />
            <mxPoint x="830" y="540" as="targetPoint" />
            <Array as="points">
              <mxPoint x="740" y="570" />
            </Array>
          </mxGeometry>
        </mxCell>
        <mxCell id="Xcn8wanABZDGnD14Wmt7-32" value="" style="endArrow=diamondThin;endFill=0;endSize=24;html=1;rounded=0;exitX=0.5;exitY=0;exitDx=0;exitDy=0;" edge="1" parent="1" source="Xcn8wanABZDGnD14Wmt7-22">
          <mxGeometry width="160" relative="1" as="geometry">
            <mxPoint x="807" y="599" as="sourcePoint" />
            <mxPoint x="850" y="270" as="targetPoint" />
            <Array as="points">
              <mxPoint x="776" y="540" />
              <mxPoint x="810" y="400" />
            </Array>
          </mxGeometry>
        </mxCell>
        <mxCell id="Xcn8wanABZDGnD14Wmt7-36" value="" style="endArrow=none;html=1;edgeStyle=orthogonalEdgeStyle;rounded=0;entryX=0.52;entryY=-0.061;entryDx=0;entryDy=0;entryPerimeter=0;exitX=0.748;exitY=1.071;exitDx=0;exitDy=0;exitPerimeter=0;" edge="1" parent="1" source="Xcn8wanABZDGnD14Wmt7-26" target="Xcn8wanABZDGnD14Wmt7-14">
          <mxGeometry relative="1" as="geometry">
            <mxPoint x="520" y="790" as="sourcePoint" />
            <mxPoint x="680" y="790" as="targetPoint" />
            <Array as="points">
              <mxPoint x="602" y="790" />
              <mxPoint x="713" y="790" />
            </Array>
          </mxGeometry>
        </mxCell>
        <mxCell id="Xcn8wanABZDGnD14Wmt7-39" value="" style="endArrow=none;html=1;edgeStyle=orthogonalEdgeStyle;rounded=0;entryX=0.52;entryY=-0.061;entryDx=0;entryDy=0;entryPerimeter=0;exitX=0.476;exitY=1.05;exitDx=0;exitDy=0;exitPerimeter=0;" edge="1" parent="1" source="Xcn8wanABZDGnD14Wmt7-26">
          <mxGeometry relative="1" as="geometry">
            <mxPoint x="550" y="765" as="sourcePoint" />
            <mxPoint x="595.51" y="826" as="targetPoint" />
            <Array as="points">
              <mxPoint x="550" y="765" />
              <mxPoint x="550" y="765" />
              <mxPoint x="550" y="793" />
              <mxPoint x="596" y="793" />
            </Array>
          </mxGeometry>
        </mxCell>
        <mxCell id="Xcn8wanABZDGnD14Wmt7-40" value="" style="endArrow=none;html=1;edgeStyle=orthogonalEdgeStyle;rounded=0;exitX=0.108;exitY=1.095;exitDx=0;exitDy=0;exitPerimeter=0;entryX=1;entryY=0.077;entryDx=0;entryDy=0;entryPerimeter=0;" edge="1" parent="1" source="Xcn8wanABZDGnD14Wmt7-26" target="Xcn8wanABZDGnD14Wmt7-11">
          <mxGeometry relative="1" as="geometry">
            <mxPoint x="480" y="770" as="sourcePoint" />
            <mxPoint x="440" y="820" as="targetPoint" />
            <Array as="points">
              <mxPoint x="480" y="770" />
              <mxPoint x="440" y="770" />
            </Array>
          </mxGeometry>
        </mxCell>
        <mxCell id="Xcn8wanABZDGnD14Wmt7-41" value="" style="endArrow=none;html=1;edgeStyle=orthogonalEdgeStyle;rounded=0;entryX=0.52;entryY=-0.061;entryDx=0;entryDy=0;entryPerimeter=0;exitX=0.893;exitY=1.051;exitDx=0;exitDy=0;exitPerimeter=0;" edge="1" parent="1" source="Edx4fiYNY0nwNvGsdz91-35">
          <mxGeometry relative="1" as="geometry">
            <mxPoint x="1160" y="765" as="sourcePoint" />
            <mxPoint x="1205.51" y="830" as="targetPoint" />
            <Array as="points">
              <mxPoint x="1160" y="790" />
              <mxPoint x="1160" y="790" />
              <mxPoint x="1160" y="797" />
              <mxPoint x="1205" y="797" />
            </Array>
          </mxGeometry>
        </mxCell>
        <mxCell id="Xcn8wanABZDGnD14Wmt7-42" value="" style="endArrow=none;html=1;edgeStyle=orthogonalEdgeStyle;rounded=0;entryX=0.52;entryY=-0.061;entryDx=0;entryDy=0;entryPerimeter=0;exitX=0.893;exitY=1.051;exitDx=0;exitDy=0;exitPerimeter=0;" edge="1" parent="1">
          <mxGeometry relative="1" as="geometry">
            <mxPoint x="1090" y="782" as="sourcePoint" />
            <mxPoint x="1135.51" y="830" as="targetPoint" />
            <Array as="points">
              <mxPoint x="1090" y="790" />
              <mxPoint x="1090" y="790" />
              <mxPoint x="1090" y="797" />
              <mxPoint x="1135" y="797" />
            </Array>
          </mxGeometry>
        </mxCell>
        <mxCell id="Xcn8wanABZDGnD14Wmt7-43" value="" style="endArrow=none;html=1;edgeStyle=orthogonalEdgeStyle;rounded=0;entryX=0.52;entryY=-0.061;entryDx=0;entryDy=0;entryPerimeter=0;exitX=0.104;exitY=1.057;exitDx=0;exitDy=0;exitPerimeter=0;" edge="1" parent="1" source="Edx4fiYNY0nwNvGsdz91-35">
          <mxGeometry relative="1" as="geometry">
            <mxPoint x="1010" y="790" as="sourcePoint" />
            <mxPoint x="980" y="830" as="targetPoint" />
            <Array as="points">
              <mxPoint x="1010" y="790" />
              <mxPoint x="980" y="790" />
            </Array>
          </mxGeometry>
        </mxCell>
      </root>
    </mxGraphModel>
  </diagram>
</mxfile>
